<svg width="1024" height="1024" viewBox="0 0 1024 1024" fill="none" xmlns="http://www.w3.org/2000/svg">
  <rect width="1024" height="1024" rx="224" fill="#09090B"/>
  <rect x="70" y="70" width="884" height="884" rx="184" fill="url(#bg)"/>
  <rect x="116" y="116" width="792" height="792" rx="144" stroke="#27272A" stroke-width="22"/>

  <path d="M262 362L374 474L262 586" stroke="#22C55E" stroke-width="58" stroke-linecap="round" stroke-linejoin="round"/>
  <path d="M440 628H662" stroke="#A1A1AA" stroke-width="54" stroke-linecap="round"/>

  <path d="M370 253H704C767.513 253 819 304.487 819 368V546C819 609.513 767.513 661 704 661H603L501 757C486.462 770.68 462.793 760.37 462.793 740.398V661H370C306.487 661 255 609.513 255 546V368C255 304.487 306.487 253 370 253Z" fill="#18181B" fill-opacity="0.78"/>
  <path d="M370 253H704C767.513 253 819 304.487 819 368V546C819 609.513 767.513 661 704 661H603L501 757C486.462 770.68 462.793 760.37 462.793 740.398V661H370C306.487 661 255 609.513 255 546V368C255 304.487 306.487 253 370 253Z" stroke="#3F3F46" stroke-width="22" stroke-linejoin="round"/>

  <rect x="507" y="411" width="154" height="130" rx="28" fill="#22C55E"/>
  <path d="M543 411V372C543 349.356 561.356 331 584 331V331C606.644 331 625 349.356 625 372V411" stroke="#BBF7D0" stroke-width="26" stroke-linecap="round"/>
  <circle cx="584" cy="476" r="17" fill="#052E16"/>
  <path d="M584 491V512" stroke="#052E16" stroke-width="16" stroke-linecap="round"/>

  <path d="M332 330L435 433L332 536" stroke="#22C55E" stroke-width="54" stroke-linecap="round" stroke-linejoin="round"/>
  <path d="M470 567H668" stroke="#E4E4E7" stroke-width="46" stroke-linecap="round"/>

  <defs>
    <radialGradient id="bg" cx="0" cy="0" r="1" gradientUnits="userSpaceOnUse" gradientTransform="translate(310 236) rotate(47.5067) scale(758.516)">
      <stop stop-color="#1F2937"/>
      <stop offset="0.52" stop-color="#111827"/>
      <stop offset="1" stop-color="#052E16"/>
    </radialGradient>
  </defs>
</svg>
